# xmcd
#
# Track frame offsets: 
#        150
#        18935
#        40190
#        57480
#        73655
#        94647
#        110060
#        126017
#        149247
#        169730
#        199990
#        215850
#        229175
#        248692
#
# Disc length: 3487 seconds
#
# Revision: 4
# Processed by: cddbd v1.5.2PL0 Copyright (c) Steve Scherf et al.
# Submitted via: ExactAudioCopy v0.99pb4
#
DISCID=d70d9d0e
DTITLE=Michelle Shocked - Arkansas Traveler
DYEAR=1992
DGENRE=Country
TTITLE0=33 RPM Soul
TTITLE1=Come A Long Way
TTITLE2=Secret To A Long Life
TTITLE3=Contest Coming (Cripple Creek)
TTITLE4=Over The Waterfall
TTITLE5=Shaking Hands (Soldier's Joy)
TTITLE6=Jump Jim Crow - Zip-A-Dee-Doo-Dah
TTITLE7=Hold Me Back (Frankie and Johnny)
TTITLE8=Strawberry Jam
TTITLE9=Prodigal Daughter (Cotton Eyed Joe)
TTITLE10=Blackberry Blossom
TTITLE11=Weaving Way
TTITLE12=Arkansas Traveler
TTITLE13=Woody's Rag
EXTD=1992 YEAR: 1992 ID3G:   2
EXTT0=
EXTT1=
EXTT2=
EXTT3=
EXTT4=
EXTT5=
EXTT6=
EXTT7=
EXTT8=
EXTT9=
EXTT10=
EXTT11=
EXTT12=
EXTT13=
PLAYORDER=
